ffmpeg started on 2025-06-28 at 18:16:51
Report written to "D:\Convert\FFMetrics\reports\ssim_report-6.txt"
Log level: 32
Command line:
ffmpeg -hide_banner -nostdin -i "G:\\\xc0\xed\xe8\xec\xe5\\\xce\xed\xe3\xee\xe8\xed\xe3\xe8\\!_37_\xc7\xe8\xec\xe0_2025\\JamClub\\100 \xe4\xe5\xe2\xf3\xf8\xe5\xea, \xea\xee\xf2\xee\xf0\xfb\xe5 \xee\xf7\xe5\xed\xfc-\xee\xf7\xe5\xed\xfc-\xee\xf7\xe5\xed\xfc-\xee\xf7\xe5\xed\xfc-\xee\xf7\xe5\xed\xfc \xf1\xe8\xeb\xfc\xed\xee \xf2\xe5\xe1\xff \xeb\xfe\xe1\xff\xf2\\\xd2\xc2-2\\JamClub_The_100_Girlfriends_Who_Really_Really_Really_Really_REALLY_2_11_HEVC.mkv" -i "G:\\\xc0\xed\xe8\xec\xe5\\\xce\xed\xe3\xee\xe8\xed\xe3\xe8\\!_37_\xc7\xe8\xec\xe0_2025\\JamClub\\100 \xe4\xe5\xe2\xf3\xf8\xe5\xea, \xea\xee\xf2\xee\xf0\xfb\xe5 \xee\xf7\xe5\xed\xfc-\xee\xf7\xe5\xed\xfc-\xee\xf7\xe5\xed\xfc-\xee\xf7\xe5\xed\xfc-\xee\xf7\xe5\xed\xfc \xf1\xe8\xeb\xfc\xed\xee \xf2\xe5\xe1\xff \xeb\xfe\xe1\xff\xf2\\\xd2\xc2-2\\JamClub_The_100_Girlfriends_Who_Really_Really_Really_Really_REALLY_2_11.mp4" -lavfi "[0:v]settb=AVTB,setpts=PTS-STARTPTS,format=pix_fmts=yuv420p10,fps=24000/1001,scale=1920:1080:flags=bicubic[main];[1:v]settb=AVTB,setpts=PTS-STARTPTS,format=pix_fmts=yuv420p,fps=24000/1001,scale=1920:1080:flags=bicubic[ref];[main][ref]ssim=eof_action=endall:stats_file='D\\:/Convert/FFMetrics/logs/ssim_logfile-6.txt'" -f null -
Input #0, matroska,webm, from 'G:\Аниме\Онгоинги\!_37_Зима_2025\JamClub\100 девушек, которые очень-очень-очень-очень-очень сильно тебя любят\ТВ-2\JamClub_The_100_Girlfriends_Who_Really_Really_Really_Really_REALLY_2_11_HEVC.mkv':
  Metadata:
    COMPATIBLE_BRANDS: isomiso2avc1mp41
    MAJOR_BRAND     : isom
    MINOR_VERSION   : 512
    ENCODER         : Lavf61.7.100
  Duration: 00:24:12.27, start: -0.001000, bitrate: 1306 kb/s
  Stream #0:0: Video: hevc (Main 10), yuv420p10le(tv, bt709, progressive), 1920x1080 [SAR 1:1 DAR 16:9], 23.98 fps, 23.98 tbr, 1k tbn (default)
      Metadata:
        HANDLER_NAME    : VideoHandler
        VENDOR_ID       : [0][0][0][0]
        ENCODER         : Lavc61.19.100 libx265
        BPS             : 1109697
        DURATION        : 00:24:12.200708333
        NUMBER_OF_FRAMES: 34818
        NUMBER_OF_BYTES : 201437918
        _STATISTICS_WRITING_APP: mkvpropedit v66.0.0 ('Josie') 64-bit
        _STATISTICS_WRITING_DATE_UTC: 2025-06-28 14:31:24
        _STATISTICS_TAGS: BPS DURATION NUMBER_OF_FRAMES NUMBER_OF_BYTES
  Stream #0:1(eng): Audio: aac (LC), 48000 Hz, stereo, fltp (default)
      Metadata:
        HANDLER_NAME    : SoundHandler
        VENDOR_ID       : [0][0][0][0]
        ENCODER         : Lavc61.19.100 aac
        BPS             : 192717
        DURATION        : 00:24:12.227000000
        NUMBER_OF_FRAMES: 68074
        NUMBER_OF_BYTES : 34983636
        _STATISTICS_WRITING_APP: mkvpropedit v66.0.0 ('Josie') 64-bit
        _STATISTICS_WRITING_DATE_UTC: 2025-06-28 14:31:24
        _STATISTICS_TAGS: BPS DURATION NUMBER_OF_FRAMES NUMBER_OF_BYTES
Input #1, mov,mp4,m4a,3gp,3g2,mj2, from 'G:\Аниме\Онгоинги\!_37_Зима_2025\JamClub\100 девушек, которые очень-очень-очень-очень-очень сильно тебя любят\ТВ-2\JamClub_The_100_Girlfriends_Who_Really_Really_Really_Really_REALLY_2_11.mp4':
  Metadata:
    major_brand     : isom
    minor_version   : 512
    compatible_brands: isomiso2avc1mp41
    encoder         : Lavf60.16.100
  Duration: 00:24:12.25, start: 0.000000, bitrate: 3777 kb/s
  Stream #1:0[0x1](und): Video: h264 (High) (avc1 / 0x31637661), yuv420p(progressive), 1920x1080 [SAR 1:1 DAR 16:9], 3579 kb/s, 23.98 fps, 23.98 tbr, 90k tbn (default)
      Metadata:
        handler_name    : VideoHandler
        vendor_id       : [0][0][0][0]
  Stream #1:1[0x2](eng): Audio: aac (LC) (mp4a / 0x6134706D), 48000 Hz, stereo, fltp, 191 kb/s (default)
      Metadata:
        handler_name    : SoundHandler
        vendor_id       : [0][0][0][0]
Stream mapping:
  Stream #0:0 (hevc) -> settb:default
  Stream #1:0 (h264) -> settb:default
  ssim:default -> Stream #0:0 (wrapped_avframe)
  Stream #0:1 -> #0:1 (aac (native) -> pcm_s16le (native))
Output #0, null, to 'pipe:':
  Metadata:
    COMPATIBLE_BRANDS: isomiso2avc1mp41
    MAJOR_BRAND     : isom
    MINOR_VERSION   : 512
    encoder         : Lavf61.7.100
  Stream #0:0: Video: wrapped_avframe, yuv420p10le(tv, bt709, progressive), 1920x1080 [SAR 1:1 DAR 16:9], q=2-31, 200 kb/s, 23.98 fps, 23.98 tbn
      Metadata:
        encoder         : Lavc61.19.100 wrapped_avframe
  Stream #0:1(eng): Audio: pcm_s16le, 48000 Hz, stereo, s16, 1536 kb/s (default)
      Metadata:
        HANDLER_NAME    : SoundHandler
        VENDOR_ID       : [0][0][0][0]
        _STATISTICS_TAGS: BPS DURATION NUMBER_OF_FRAMES NUMBER_OF_BYTES
        BPS             : 192717
        DURATION        : 00:24:12.227000000
        NUMBER_OF_FRAMES: 68074
        NUMBER_OF_BYTES : 34983636
        _STATISTICS_WRITING_APP: mkvpropedit v66.0.0 ('Josie') 64-bit
        _STATISTICS_WRITING_DATE_UTC: 2025-06-28 14:31:24
        encoder         : Lavc61.19.100 pcm_s16le
frame=  114 fps=0.0 q=-0.0 size=N/A time=00:00:04.75 bitrate=N/A speed=9.25x    frame=  284 fps=273 q=-0.0 size=N/A time=00:00:11.84 bitrate=N/A speed=11.4x    frame=  481 fps=310 q=-0.0 size=N/A time=00:00:20.06 bitrate=N/A speed=12.9x    frame=  663 fps=320 q=-0.0 size=N/A time=00:00:27.65 bitrate=N/A speed=13.3x    frame=  912 fps=353 q=-0.0 size=N/A time=00:00:38.03 bitrate=N/A speed=14.7x    frame= 1184 fps=383 q=-0.0 size=N/A time=00:00:49.38 bitrate=N/A speed=  16x    frame= 1475 fps=407 q=-0.0 size=N/A time=00:01:01.51 bitrate=N/A speed=  17x    frame= 1751 fps=424 q=-0.0 size=N/A time=00:01:13.03 bitrate=N/A speed=17.7x    frame= 2003 fps=432 q=-0.0 size=N/A time=00:01:23.54 bitrate=N/A speed=  18x    frame= 2196 fps=425 q=-0.0 size=N/A time=00:01:31.59 bitrate=N/A speed=17.7x    frame= 2461 fps=433 q=-0.0 size=N/A time=00:01:42.64 bitrate=N/A speed=18.1x    frame= 2727 fps=441 q=-0.0 size=N/A time=00:01:53.73 bitrate=N/A speed=18.4x    frame= 2952 fps=440 q=-0.0 size=N/A time=00:02:03.12 bitrate=N/A speed=18.3x    frame= 3161 fps=437 q=-0.0 size=N/A time=00:02:11.84 bitrate=N/A speed=18.2x    frame= 3386 fps=438 q=-0.0 size=N/A time=00:02:21.22 bitrate=N/A speed=18.3x    frame= 3618 fps=438 q=-0.0 size=N/A time=00:02:30.90 bitrate=N/A speed=18.3x    frame= 3824 fps=436 q=-0.0 size=N/A time=00:02:39.49 bitrate=N/A speed=18.2x    frame= 4058 fps=437 q=-0.0 size=N/A time=00:02:49.25 bitrate=N/A speed=18.2x    frame= 4214 fps=430 q=-0.0 size=N/A time=00:02:55.75 bitrate=N/A speed=17.9x    frame= 4389 fps=425 q=-0.0 size=N/A time=00:03:03.05 bitrate=N/A speed=17.7x    frame= 4559 fps=421 q=-0.0 size=N/A time=00:03:10.14 bitrate=N/A speed=17.6x    frame= 4767 fps=420 q=-0.0 size=N/A time=00:03:18.82 bitrate=N/A speed=17.5x    frame= 5002 fps=422 q=-0.0 size=N/A time=00:03:28.62 bitrate=N/A speed=17.6x    frame= 5286 fps=427 q=-0.0 size=N/A time=00:03:40.47 bitrate=N/A speed=17.8x    frame= 5527 fps=428 q=-0.0 size=N/A time=00:03:50.52 bitrate=N/A speed=17.9x    frame= 5744 fps=428 q=-0.0 size=N/A time=00:03:59.57 bitrate=N/A speed=17.9x    frame= 5969 fps=429 q=-0.0 size=N/A time=00:04:08.95 bitrate=N/A speed=17.9x    frame= 6228 fps=431 q=-0.0 size=N/A time=00:04:19.75 bitrate=N/A speed=  18x    frame= 6469 fps=432 q=-0.0 size=N/A time=00:04:29.81 bitrate=N/A speed=  18x    frame= 6720 fps=434 q=-0.0 size=N/A time=00:04:40.28 bitrate=N/A speed=18.1x    frame= 6943 fps=434 q=-0.0 size=N/A time=00:04:49.58 bitrate=N/A speed=18.1x    frame= 7199 fps=436 q=-0.0 size=N/A time=00:05:00.25 bitrate=N/A speed=18.2x    frame= 7401 fps=435 q=-0.0 size=N/A time=00:05:08.68 bitrate=N/A speed=18.1x    frame= 7687 fps=438 q=-0.0 size=N/A time=00:05:20.61 bitrate=N/A speed=18.3x    frame= 7937 fps=440 q=-0.0 size=N/A time=00:05:31.03 bitrate=N/A speed=18.3x    frame= 8176 fps=440 q=-0.0 size=N/A time=00:05:41.00 bitrate=N/A speed=18.4x    frame= 8432 fps=442 q=-0.0 size=N/A time=00:05:51.68 bitrate=N/A speed=18.4x    frame= 8700 fps=444 q=-0.0 size=N/A time=00:06:02.86 bitrate=N/A speed=18.5x    frame= 8975 fps=446 q=-0.0 size=N/A time=00:06:14.33 bitrate=N/A speed=18.6x    frame= 9212 fps=446 q=-0.0 size=N/A time=00:06:24.21 bitrate=N/A speed=18.6x    frame= 9445 fps=447 q=-0.0 size=N/A time=00:06:33.93 bitrate=N/A speed=18.6x    frame= 9675 fps=447 q=-0.0 size=N/A time=00:06:43.52 bitrate=N/A speed=18.6x    frame= 9919 fps=447 q=-0.0 size=N/A time=00:06:53.70 bitrate=N/A speed=18.7x    frame=10147 fps=447 q=-0.0 size=N/A time=00:07:03.21 bitrate=N/A speed=18.7x    frame=10376 fps=447 q=-0.0 size=N/A time=00:07:12.76 bitrate=N/A speed=18.7x    frame=10624 fps=448 q=-0.0 size=N/A time=00:07:23.10 bitrate=N/A speed=18.7x    frame=10882 fps=449 q=-0.0 size=N/A time=00:07:33.87 bitrate=N/A speed=18.7x    frame=11136 fps=450 q=-0.0 size=N/A time=00:07:44.46 bitrate=N/A speed=18.8x    frame=11398 fps=451 q=-0.0 size=N/A time=00:07:55.39 bitrate=N/A speed=18.8x    frame=11675 fps=453 q=-0.0 size=N/A time=00:08:06.94 bitrate=N/A speed=18.9x    frame=11928 fps=454 q=-0.0 size=N/A time=00:08:17.49 bitrate=N/A speed=18.9x    frame=12198 fps=455 q=-0.0 size=N/A time=00:08:28.75 bitrate=N/A speed=  19x    frame=12455 fps=456 q=-0.0 size=N/A time=00:08:39.47 bitrate=N/A speed=  19x    frame=12679 fps=455 q=-0.0 size=N/A time=00:08:48.81 bitrate=N/A speed=  19x    frame=12938 fps=456 q=-0.0 size=N/A time=00:08:59.62 bitrate=N/A speed=  19x    frame=13215 fps=458 q=-0.0 size=N/A time=00:09:11.17 bitrate=N/A speed=19.1x    frame=13472 fps=458 q=-0.0 size=N/A time=00:09:21.89 bitrate=N/A speed=19.1x    frame=13740 fps=459 q=-0.0 size=N/A time=00:09:33.07 bitrate=N/A speed=19.1x    frame=14004 fps=460 q=-0.0 size=N/A time=00:09:44.08 bitrate=N/A speed=19.2x    frame=14247 fps=460 q=-0.0 size=N/A time=00:09:54.21 bitrate=N/A speed=19.2x    frame=14517 fps=461 q=-0.0 size=N/A time=00:10:05.47 bitrate=N/A speed=19.2x    frame=14777 fps=462 q=-0.0 size=N/A time=00:10:16.32 bitrate=N/A speed=19.3x    frame=15040 fps=463 q=-0.0 size=N/A time=00:10:27.29 bitrate=N/A speed=19.3x    frame=15291 fps=463 q=-0.0 size=N/A time=00:10:37.76 bitrate=N/A speed=19.3x    frame=15532 fps=463 q=-0.0 size=N/A time=00:10:47.81 bitrate=N/A speed=19.3x    frame=15791 fps=464 q=-0.0 size=N/A time=00:10:58.61 bitrate=N/A speed=19.3x    frame=16074 fps=465 q=-0.0 size=N/A time=00:11:10.41 bitrate=N/A speed=19.4x    frame=16350 fps=466 q=-0.0 size=N/A time=00:11:21.93 bitrate=N/A speed=19.4x    frame=16614 fps=467 q=-0.0 size=N/A time=00:11:32.94 bitrate=N/A speed=19.5x    frame=16829 fps=466 q=-0.0 size=N/A time=00:11:41.90 bitrate=N/A speed=19.4x    frame=17079 fps=466 q=-0.0 size=N/A time=00:11:52.33 bitrate=N/A speed=19.4x    frame=17310 fps=466 q=-0.0 size=N/A time=00:12:01.97 bitrate=N/A speed=19.4x    frame=17582 fps=467 q=-0.0 size=N/A time=00:12:13.31 bitrate=N/A speed=19.5x    frame=17830 fps=467 q=-0.0 size=N/A time=00:12:23.65 bitrate=N/A speed=19.5x    frame=18071 fps=467 q=-0.0 size=N/A time=00:12:33.71 bitrate=N/A speed=19.5x    frame=18333 fps=467 q=-0.0 size=N/A time=00:12:44.63 bitrate=N/A speed=19.5x    frame=18574 fps=467 q=-0.0 size=N/A time=00:12:54.69 bitrate=N/A speed=19.5x    frame=18808 fps=467 q=-0.0 size=N/A time=00:13:04.45 bitrate=N/A speed=19.5x    frame=19074 fps=468 q=-0.0 size=N/A time=00:13:15.54 bitrate=N/A speed=19.5x    frame=19326 fps=468 q=-0.0 size=N/A time=00:13:26.05 bitrate=N/A speed=19.5x    frame=19585 fps=468 q=-0.0 size=N/A time=00:13:36.85 bitrate=N/A speed=19.5x    frame=19846 fps=469 q=-0.0 size=N/A time=00:13:47.74 bitrate=N/A speed=19.6x    frame=20089 fps=469 q=-0.0 size=N/A time=00:13:57.87 bitrate=N/A speed=19.6x    frame=20364 fps=470 q=-0.0 size=N/A time=00:14:09.34 bitrate=N/A speed=19.6x    frame=20597 fps=470 q=-0.0 size=N/A time=00:14:19.06 bitrate=N/A speed=19.6x    frame=20833 fps=469 q=-0.0 size=N/A time=00:14:28.90 bitrate=N/A speed=19.6x    frame=21069 fps=469 q=-0.0 size=N/A time=00:14:38.75 bitrate=N/A speed=19.6x    frame=21298 fps=469 q=-0.0 size=N/A time=00:14:48.30 bitrate=N/A speed=19.6x    frame=21531 fps=469 q=-0.0 size=N/A time=00:14:58.02 bitrate=N/A speed=19.6x    frame=21793 fps=469 q=-0.0 size=N/A time=00:15:08.94 bitrate=N/A speed=19.6x    frame=22069 fps=470 q=-0.0 size=N/A time=00:15:20.46 bitrate=N/A speed=19.6x    frame=22347 fps=471 q=-0.0 size=N/A time=00:15:32.05 bitrate=N/A speed=19.6x    frame=22630 fps=472 q=-0.0 size=N/A time=00:15:43.85 bitrate=N/A speed=19.7x    frame=22906 fps=472 q=-0.0 size=N/A time=00:15:55.37 bitrate=N/A speed=19.7x    frame=23142 fps=472 q=-0.0 size=N/A time=00:16:05.21 bitrate=N/A speed=19.7x    frame=23422 fps=473 q=-0.0 size=N/A time=00:16:16.89 bitrate=N/A speed=19.7x    frame=23684 fps=473 q=-0.0 size=N/A time=00:16:27.82 bitrate=N/A speed=19.7x    frame=23942 fps=474 q=-0.0 size=N/A time=00:16:38.58 bitrate=N/A speed=19.7x    frame=24178 fps=473 q=-0.0 size=N/A time=00:16:48.42 bitrate=N/A speed=19.7x    frame=24456 fps=474 q=-0.0 size=N/A time=00:17:00.01 bitrate=N/A speed=19.8x    frame=24714 fps=474 q=-0.0 size=N/A time=00:17:10.77 bitrate=N/A speed=19.8x    frame=24982 fps=475 q=-0.0 size=N/A time=00:17:21.95 bitrate=N/A speed=19.8x    frame=25250 fps=475 q=-0.0 size=N/A time=00:17:33.13 bitrate=N/A speed=19.8x    frame=25511 fps=475 q=-0.0 size=N/A time=00:17:44.02 bitrate=N/A speed=19.8x    frame=25789 fps=476 q=-0.0 size=N/A time=00:17:55.61 bitrate=N/A speed=19.9x    frame=26042 fps=476 q=-0.0 size=N/A time=00:18:06.16 bitrate=N/A speed=19.9x    frame=26308 fps=476 q=-0.0 size=N/A time=00:18:17.26 bitrate=N/A speed=19.9x    frame=26502 fps=476 q=-0.0 size=N/A time=00:18:25.35 bitrate=N/A speed=19.8x    frame=26740 fps=475 q=-0.0 size=N/A time=00:18:35.28 bitrate=N/A speed=19.8x    frame=26970 fps=475 q=-0.0 size=N/A time=00:18:44.87 bitrate=N/A speed=19.8x    frame=27219 fps=475 q=-0.0 size=N/A time=00:18:55.25 bitrate=N/A speed=19.8x    frame=27480 fps=475 q=-0.0 size=N/A time=00:19:06.14 bitrate=N/A speed=19.8x    frame=27747 fps=476 q=-0.0 size=N/A time=00:19:17.28 bitrate=N/A speed=19.8x    frame=27979 fps=476 q=-0.0 size=N/A time=00:19:26.95 bitrate=N/A speed=19.8x    frame=28226 fps=476 q=-0.0 size=N/A time=00:19:37.25 bitrate=N/A speed=19.8x    frame=28513 fps=476 q=-0.0 size=N/A time=00:19:49.22 bitrate=N/A speed=19.9x    frame=28772 fps=477 q=-0.0 size=N/A time=00:20:00.03 bitrate=N/A speed=19.9x    frame=29034 fps=477 q=-0.0 size=N/A time=00:20:10.95 bitrate=N/A speed=19.9x    frame=29285 fps=477 q=-0.0 size=N/A time=00:20:21.42 bitrate=N/A speed=19.9x    frame=29542 fps=477 q=-0.0 size=N/A time=00:20:32.14 bitrate=N/A speed=19.9x    frame=29760 fps=477 q=-0.0 size=N/A time=00:20:41.24 bitrate=N/A speed=19.9x    frame=30006 fps=477 q=-0.0 size=N/A time=00:20:51.50 bitrate=N/A speed=19.9x    frame=30253 fps=477 q=-0.0 size=N/A time=00:21:01.80 bitrate=N/A speed=19.9x    frame=30494 fps=477 q=-0.0 size=N/A time=00:21:11.85 bitrate=N/A speed=19.9x    frame=30730 fps=476 q=-0.0 size=N/A time=00:21:21.69 bitrate=N/A speed=19.9x    frame=30988 fps=477 q=-0.0 size=N/A time=00:21:32.45 bitrate=N/A speed=19.9x    frame=31222 fps=476 q=-0.0 size=N/A time=00:21:42.21 bitrate=N/A speed=19.9x    frame=31453 fps=476 q=-0.0 size=N/A time=00:21:51.85 bitrate=N/A speed=19.9x    frame=31688 fps=476 q=-0.0 size=N/A time=00:22:01.65 bitrate=N/A speed=19.9x    frame=31959 fps=476 q=-0.0 size=N/A time=00:22:12.95 bitrate=N/A speed=19.9x    frame=32223 fps=477 q=-0.0 size=N/A time=00:22:23.96 bitrate=N/A speed=19.9x    frame=32483 fps=477 q=-0.0 size=N/A time=00:22:34.81 bitrate=N/A speed=19.9x    frame=32706 fps=477 q=-0.0 size=N/A time=00:22:44.11 bitrate=N/A speed=19.9x    frame=32867 fps=475 q=-0.0 size=N/A time=00:22:50.82 bitrate=N/A speed=19.8x    frame=33070 fps=475 q=-0.0 size=N/A time=00:22:59.29 bitrate=N/A speed=19.8x    frame=33297 fps=474 q=-0.0 size=N/A time=00:23:08.76 bitrate=N/A speed=19.8x    frame=33506 fps=474 q=-0.0 size=N/A time=00:23:17.47 bitrate=N/A speed=19.8x    frame=33704 fps=473 q=-0.0 size=N/A time=00:23:25.73 bitrate=N/A speed=19.7x    frame=33893 fps=473 q=-0.0 size=N/A time=00:23:33.62 bitrate=N/A speed=19.7x    frame=34064 fps=472 q=-0.0 size=N/A time=00:23:40.75 bitrate=N/A speed=19.7x    frame=34176 fps=470 q=-0.0 size=N/A time=00:23:45.42 bitrate=N/A speed=19.6x    frame=34287 fps=468 q=-0.0 size=N/A time=00:23:50.05 bitrate=N/A speed=19.5x    frame=34404 fps=466 q=-0.0 size=N/A time=00:23:54.93 bitrate=N/A speed=19.4x    frame=34536 fps=465 q=-0.0 size=N/A time=00:24:00.43 bitrate=N/A speed=19.4x    frame=34732 fps=464 q=-0.0 size=N/A time=00:24:08.61 bitrate=N/A speed=19.4x    [Parsed_ssim_10 @ 000002144e911880] SSIM Y:0.996141 (24.135178) U:0.994917 (22.939038) V:0.994565 (22.648148) All:0.995674 (23.639502)
[out#0/null @ 0000021447e62f00] video:14961KiB audio:272296KiB subtitle:0KiB other streams:0KiB global headers:0KiB muxing overhead: unknown
frame=34818 fps=464 q=-0.0 Lsize=N/A time=00:24:12.20 bitrate=N/A speed=19.4x    
